<?xml version="1.0" standalone="no"?>
<!DOCTYPE svg PUBLIC "-//W3C//DTD SVG 1.1//EN" "http://www.w3.org/Graphics/SVG/1.1/DTD/svg11.dtd" >
<svg xmlns="http://www.w3.org/2000/svg" xmlns:xlink="http://www.w3.org/1999/xlink" version="1.1">
<metadata>
Created by FontForge 20161116 at Wed Jun  7 01:27:55 2017
 By Jimmy Wärting
Copyright (c) 2015 by Andrew Herndon. All rights reserved.
</metadata>
<defs>
<font id="Zefani-Regular" horiz-adv-x="594" >
  <font-face 
    font-family="Zefani"
    font-weight="400"
    font-stretch="normal"
    units-per-em="1000"
    panose-1="0 0 5 0 0 0 0 0 0 0"
    ascent="832"
    descent="-168"
    x-height="537"
    cap-height="798"
    bbox="-160.194 -237 1042 865"
    underline-thickness="50"
    underline-position="-100"
    unicode-range="U+0020-007A"
  />
<missing-glyph horiz-adv-x="500" 
d="M410 832v-1000h-317v1000h317zM333 150h-166v-113h166v113zM300 117v-47h-100v47h100zM333 323h-100v-56h34v23h33v-47h-100v80h-33v-113h166v113zM333 445h-33v-66h-133v-34h166v100zM333 505h-166v-33h66v-37h-66v-33h100v70h66v33zM233 602v-36h-33v36h33zM267 636
h-100v-104h166v34h-66v70zM333 765h-165v-33h65v-37h-66v-33h166v33h-66v37h66v33zM333 14h-166v-33h70l-70 -47v-33h166v33h-102l70 47h32v33z" />
    <glyph glyph-name=".notdef" horiz-adv-x="500" 
d="M410 832v-1000h-317v1000h317zM333 150h-166v-113h166v113zM300 117v-47h-100v47h100zM333 323h-100v-56h34v23h33v-47h-100v80h-33v-113h166v113zM333 445h-33v-66h-133v-34h166v100zM333 505h-166v-33h66v-37h-66v-33h100v70h66v33zM233 602v-36h-33v36h33zM267 636
h-100v-104h166v34h-66v70zM333 765h-165v-33h65v-37h-66v-33h166v33h-66v37h66v33zM333 14h-166v-33h70l-70 -47v-33h166v33h-102l70 47h32v33z" />
    <glyph glyph-name="space" unicode=" " horiz-adv-x="280" 
 />
    <glyph glyph-name="A" unicode="A" horiz-adv-x="788" 
d="M180 190c-30 -139 72 -190 72 -190h-202c97 48 130 190 130 190zM738 0h-215l13 10l-58 180c-28 87 -175 144 -245 154h196l-107 341l31 113h124l247 -787z" />
    <glyph glyph-name="B" unicode="B" horiz-adv-x="717" 
d="M248 798v-798h-198l17 12v774l-17 12h198zM415 429c90 -4 252 -49 252 -215c0 -202 -218 -214 -292 -214c32 11 75 24 82 127c0 0 4 44 4 87c0 41 -4 89 -4 89c-6 96 -94 123 -96 123c26 10 69 21 74 110c0 0 3 39 3 76c0 36 -3 78 -3 78c-4 86 -51 100 -70 108
c60 0 259 -23 259 -186c0 -137 -134 -177 -209 -183z" />
    <glyph glyph-name="C" unicode="C" horiz-adv-x="718" 
d="M387 77c165 -60 279 58 281 60c-1 -2 -66 -137 -271 -137c-88 0 -347 42 -347 399c0 322 225 399 316 399c-71 -36 -112 -89 -112 -302v-121c0 -31 2 -68 7 -107c8 -68 46 -163 126 -191zM655 798l2 -283v-22s-38 183 -188 294c0 0 161 -83 186 11z" />
    <glyph glyph-name="D" unicode="D" horiz-adv-x="759" 
d="M248 798v-798h-198l17 12v774l-17 12h198zM373 798c69 0 336 -49 336 -399c0 -344 -268 -399 -336 -399c30 21 120 45 126 236c0 0 4 84 4 163c0 77 -4 167 -4 167c-5 186 -104 215 -126 232z" />
    <glyph glyph-name="E" unicode="E" horiz-adv-x="651" 
d="M248 798v-798h-198l16 12v774l-16 12h198zM569 565c-8 49 -50 217 -241 233h241v-233zM328 0c56 8 254 51 273 248v-248h-273zM439 286c-1 8 -25 105 -132 124c107 20 132 122 132 122v-246z" />
    <glyph glyph-name="F" unicode="F" horiz-adv-x="620" 
d="M248 798v-786l15 -12h-213l17 12v774l-17 12h198zM570 565c-9 49 -50 217 -242 233h242v-233zM439 286c-1 8 -25 105 -132 124c107 20 132 122 132 122v-246z" />
    <glyph glyph-name="G" unicode="G" horiz-adv-x="803" 
d="M671 798l2 -283v-22s-39 183 -188 294c0 0 160 -83 186 11zM538 390h215l-17 -13v-336s-40 67 -94 67c-52 0 -119 -78 -157 -98c1 1 70 66 70 152v216zM370 798c-69 0 -320 -49 -320 -399c0 -344 251 -399 319 -399c-30 21 -107 45 -113 236c0 0 -4 84 -4 163
c0 77 4 167 4 167c5 186 92 218 114 232z" />
    <glyph glyph-name="H" unicode="H" horiz-adv-x="781" 
d="M517 0l17 12l-1 215c0 88 -86 165 -198 186h199v373l-17 12h213l-16 -11v-775l17 -12h-214zM50 0l17 12v774l-17 12h213l-16 -11v-775l17 -12h-214z" />
    <glyph glyph-name="I" unicode="I" horiz-adv-x="314" 
d="M264 0l-17 12v775l16 11h-213l17 -12v-774l-17 -12h214z" />
    <glyph glyph-name="J" unicode="J" horiz-adv-x="622" 
d="M357 798h215l-17 -12v-543c0 -152 -160 -259 -299 -243c0 0 118 26 118 232v554zM256 191v-1c0 -56 -46 -103 -103 -103c-16 0 -32 4 -46 11c12 -58 75 -91 75 -91s-132 43 -132 187c0 19 6 37 16 52c18 29 51 48 87 48c43 0 79 -26 95 -64c5 -12 8 -25 8 -39z" />
    <glyph glyph-name="K" unicode="K" horiz-adv-x="801" 
d="M524 0l12 9l-208 438s108 -101 201 8l222 -455h-227zM50 0l17 12v774l-17 12h213l-16 -11v-775l17 -12h-214zM476 557c43 176 -31 241 -31 241h225c-99 -43 -194 -241 -194 -241z" />
    <glyph glyph-name="L" unicode="L" horiz-adv-x="647" 
d="M50 0h197v787l16 11h-213l17 -12v-774zM355 0c50 7 225 64 242 243v-243h-242z" />
    <glyph glyph-name="M" unicode="M" horiz-adv-x="951" 
d="M901 0l-17 12v775l16 11h-133l-63 -186v-600l-17 -12h214zM146 203c9 -142 88 -203 88 -203h-184c93 48 96 203 96 203zM322 798l201 -607l74 102l-104 -293h-101l-261 784l-22 14h213z" />
    <glyph glyph-name="N" unicode="N" horiz-adv-x="825" 
d="M261 0c0 0 -88 60 -96 240c0 0 -4 -182 -103 -240h199zM672 0v325l-32 -126l-353 599h-237l26 -11l475 -787h121zM672 577c0 0 5 170 103 221h-197s87 -64 94 -221z" />
    <glyph glyph-name="O" unicode="O" horiz-adv-x="815" 
d="M370 798c-69 0 -320 -49 -320 -399c0 -344 251 -399 319 -399c-30 21 -107 45 -113 236c0 0 -3 84 -3 163c0 77 3 167 3 167c6 186 93 218 114 232zM445 798c69 0 320 -49 320 -399c0 -344 -251 -399 -319 -399c30 21 106 45 113 236c0 0 3 84 3 163c0 77 -3 167 -3 167
c-6 186 -90 216 -114 232z" />
    <glyph glyph-name="P" unicode="P" horiz-adv-x="663" 
d="M334 798c131 0 279 -56 279 -242c0 -210 -196 -243 -279 -243c24 13 83 27 88 144c0 0 3 50 3 99c0 46 -3 101 -3 101c-4 113 -70 131 -88 141zM248 798v-786l15 -12h-213l17 12v774l-17 12h198z" />
    <glyph glyph-name="Q" unicode="Q" horiz-adv-x="814" 
d="M674 37c43 -24 70 -61 70 -103c0 -34 -18 -66 -50 -90s-76 -38 -123 -38c-81 0 -156 38 -217 81c-60 43 -104 62 -153 62c-6 0 -12 -1 -18 -2c9 6 18 10 29 13c25 9 52 11 79 10c17 0 33 -3 50 -7c49 -10 96 -31 144 -47c36 -11 68 -16 95 -16c65 0 116 39 116 86
c0 18 -8 36 -22 51zM370 798c-70 0 -320 -49 -320 -399c0 -344 251 -399 319 -399c-30 21 -107 45 -113 236c0 0 -4 84 -4 163c0 77 4 166 4 166c5 187 92 219 114 233zM444 798c70 0 320 -49 320 -399c0 -344 -251 -399 -319 -399c30 21 107 45 113 236c0 0 4 84 4 163
c0 77 -4 166 -4 166c-5 187 -89 217 -114 233z" />
    <glyph glyph-name="R" unicode="R" horiz-adv-x="800" 
d="M563 2c-101 15 -126 112 -126 189c0 104 -5 192 -60 217c23 11 56 23 61 117c0 0 3 41 3 80c0 38 -3 82 -3 82c-4 92 -44 106 -61 114c53 0 264 -24 264 -196c0 -155 -164 -190 -235 -195c43 -5 190 -27 221 -161c18 -77 -14 -125 17 -168c26 -36 72 -34 106 -16
c-7 -8 -83 -78 -187 -63zM50 2l17 12v774l-17 12h198v-786l15 -12h-213z" />
    <glyph glyph-name="S" unicode="S" horiz-adv-x="649" 
d="M570 798l1 -88v-171s-13 157 -199 260c2 -1 170 -63 198 -1zM83 280c0 0 37 -182 214 -274c-3 2 -185 70 -212 -6l-2 258v22zM599 244c1 44 -5 84 -21 118c-12 28 -31 52 -55 72c-58 49 -133 64 -203 86c-32 11 -64 24 -91 46c-44 37 -70 89 -68 154c2 50 23 78 23 78
c-47 -27 -83 -62 -101 -94c-25 -43 -36 -95 -32 -144c5 -64 37 -123 89 -160c55 -41 122 -58 185 -83c48 -18 99 -42 130 -86c61 -85 11 -220 -8 -231c23 13 45 30 70 55c49 49 78 116 82 189z" />
    <glyph glyph-name="T" unicode="T" horiz-adv-x="803" 
d="M258 798h-208v-233c7 49 43 217 208 233zM753 798h-205c163 -16 199 -184 205 -233v233zM494 798v-786l14 -12h-212l16 12v786h182z" />
    <glyph glyph-name="U" unicode="U" horiz-adv-x="729" 
d="M337 60c71 -16 171 10 212 72c-53 -135 -193 -133 -235 -133c-87 0 -181 38 -225 119c-14 27 -22 58 -22 89v579l-17 12h214l-17 -12v-554c0 -29 2 -54 7 -76c9 -47 34 -85 83 -96zM679 798h-201s93 -27 93 -221c0 0 1 174 108 221z" />
    <glyph glyph-name="V" unicode="V" horiz-adv-x="823" 
d="M637 608c20 129 -75 190 -75 190h211c-101 -48 -136 -190 -136 -190zM50 798h218l-14 -10l205 -621l61 78l-75 -245h-123l-257 787z" />
    <glyph glyph-name="W" unicode="W" horiz-adv-x="1092" 
d="M841 245l-60 -78l-155 621l14 10h-218l15 -11l207 -787h123zM469 245l-60 -78l-155 621l14 10h-218l15 -11l207 -787h123zM907 608c20 129 -75 190 -75 190h210c-101 -48 -135 -190 -135 -190z" />
    <glyph glyph-name="X" unicode="X" horiz-adv-x="798" 
d="M516 0l-424 786l-18 12h240l-12 -9l426 -789h-212zM50 0c113 59 188 238 188 238c-50 -208 22 -238 22 -238h-210zM559 560c65 201 -30 238 -30 238h219c-118 -58 -189 -238 -189 -238z" />
    <glyph glyph-name="Y" unicode="Y" horiz-adv-x="781" 
d="M489 0l-17 12v424l-201 353l12 9h-233l17 -12l222 -390v-385l-16 -11h216zM557 592c0 0 71 155 174 206h-200s84 -33 26 -206z" />
    <glyph glyph-name="Z" unicode="Z" horiz-adv-x="707" 
d="M455 798h202l-406 -798l-201 1zM329 798h-259v-259c37 143 142 242 259 259zM647 278c-8 -51 -78 -256 -256 -278h256v278z" />
    <glyph glyph-name="A.ss01" horiz-adv-x="823" 
d="M555 0l13 10l-223 675l33 113h123l257 -787l15 -11h-218zM50 0c101 48 135 190 135 190c-31 -139 75 -190 75 -190h-210zM207 268l71 226s-3 -115 103 -138c0 0 -121 10 -174 -88z" />
    <glyph glyph-name="a" unicode="a" horiz-adv-x="580" 
d="M540 69c-26 -46 -58 -69 -131 -69c-68 0 -106 42 -106 112v350c0 65 -54 75 -54 75c233 6 226 -159 226 -249v-206c0 -48 45 -33 65 -13zM257 0c-9 3 -27 9 -40 35c-9 20 -15 48 -15 91c0 32 2 67 5 95c3 27 16 46 40 56c-48 0 -207 -18 -207 -147
c0 -160 186 -130 217 -130zM206 391c12 41 -10 84 -50 96c-11 4 -23 5 -34 3c20 39 78 47 78 47c-52 0 -160 -46 -139 -144c6 -25 25 -46 51 -54c30 -9 61 1 80 25c6 7 11 16 14 27z" />
    <glyph glyph-name="b" unicode="b" 
d="M40 774h188v-774h-188l16 12v751zM299 517c78 50 255 -21 255 -250c0 -236 -167 -304 -255 -249c24 3 56 35 63 114c2 37 4 75 4 136s-1 96 -4 136c-7 78 -43 113 -63 113z" />
    <glyph glyph-name="c" unicode="c" horiz-adv-x="523" 
d="M483 534v-223s-37 152 -160 223c0 0 125 -45 160 0zM481 89c-82 -50 -153 -45 -191 -31c-36 13 -54 47 -61 93c-6 40 -9 95 -9 129c0 29 0 61 4 118c3 59 3 119 51 139c-131 0 -235 -127 -235 -268c0 -145 101 -269 233 -269c135 0 208 89 208 89z" />
    <glyph glyph-name="d" unicode="d" horiz-adv-x="602" 
d="M369 774h193l-17 -11v-751l17 -12h-193v774zM40 267c0 229 179 300 257 250c-20 0 -57 -35 -63 -113c-3 -40 -4 -75 -4 -136s1 -99 4 -136c6 -79 39 -111 63 -114c-88 -55 -257 13 -257 249z" />
    <glyph glyph-name="e" unicode="e" horiz-adv-x="551" 
d="M314 537c192 0 197 -262 197 -262h-166v172c0 80 -31 90 -31 90zM481 89c-82 -50 -153 -45 -191 -31c-36 13 -54 47 -61 93c-6 40 -9 95 -9 129c0 29 0 61 4 118c3 59 3 119 51 139c-131 0 -235 -127 -235 -268c0 -145 101 -269 233 -269c135 0 208 89 208 89z" />
    <glyph glyph-name="f" unicode="f" horiz-adv-x="513" 
d="M238 740c-7 -18 -11 -39 -11 -59v-670l15 -11h-202l16 12v525c0 202 149 263 237 261l10 -1c-35 -2 -55 -31 -65 -57zM385 482c0 2 2 7 3 14v-216c-1 8 -3 13 -3 15c-23 59 -54 87 -111 94c58 10 88 35 111 91v2zM316 647c-10 44 15 89 58 100c12 3 25 3 36 1
c-19 42 -68 50 -68 50c22 -1 110 -15 129 -112c0 0 5 -24 -2 -44c-8 -26 -28 -47 -56 -54c-32 -8 -64 5 -83 30c-6 9 -11 18 -14 29z" />
    <glyph glyph-name="g" unicode="g" horiz-adv-x="645" 
d="M572 -79c7 6 49 171 -152 180c-191 7 -195 8 -195 8c-1 0 -173 6 -56 108c-3 -1 -162 -46 -103 -164c0 0 31 -80 189 -87c159 -6 244 -11 244 -11s65 -4 72 -24c2 -3 1 -8 1 -10zM435 -120c-6 4 -13 7 -19 9c-18 7 -37 9 -55 8c-13 0 -24 -2 -36 -5
c-35 -8 -66 -21 -99 -32c-26 -9 -47 -12 -68 -12c-43 0 -81 26 -81 62c0 13 6 27 16 38c-30 -18 -53 -56 -53 -88c0 -26 13 -49 35 -68c23 -18 53 -29 85 -29c57 0 109 30 152 61c41 33 77 58 111 58c4 0 8 -2 12 -2zM548 555c-42 -13 -87 12 -99 56c-3 12 -4 25 -2 37
c-40 -22 -46 -72 -46 -72c0 23 11 114 105 137c0 0 22 6 42 -1c25 -8 46 -28 54 -55c9 -33 -2 -67 -26 -87c-8 -7 -17 -12 -28 -15zM290 217c-23 7 -34 20 -42 52c-6 26 -7 63 -7 112c0 22 -1 68 11 103c11 31 33 52 40 53c-79 0 -198 -54 -198 -161
c0 -134 138 -159 196 -159zM327 217c23 7 34 20 42 52c6 26 7 63 7 112c0 22 1 68 -11 103c-11 31 -33 52 -40 53c79 0 198 -54 198 -161c0 -134 -138 -159 -196 -159z" />
    <glyph glyph-name="h" unicode="h" 
d="M40 0l15 11v754l-15 10h187v-764l15 -11h-202zM369 11l-16 -11h201l-14 11v376c0 71 -34 128 -111 145c-67 15 -148 -29 -148 -29c2 0 87 13 88 -69v-423z" />
    <glyph glyph-name="i" unicode="i" horiz-adv-x="282" 
d="M141 762c49 0 89 -39 89 -88c0 -48 -40 -88 -89 -88s-89 40 -89 88c0 49 40 88 89 88zM40 0l15 12v513l-15 12h185v-525l17 -12h-202z" />
    <glyph glyph-name="j" unicode="j" horiz-adv-x="276" 
d="M-36 -229c0 0 -35 4 -57 43c11 -2 22 -1 33 3c39 14 59 57 44 97c-14 40 -57 61 -96 47c-38 -14 -56 -56 -45 -95c24 -91 105 -95 121 -95zM235 674c0 49 -40 88 -88 88c-50 0 -89 -39 -89 -88c0 -48 39 -88 89 -88c48 0 88 40 88 88zM45 537h186v-567
c0 -146 -158 -199 -221 -199c54 26 52 110 52 224v530z" />
    <glyph glyph-name="k" unicode="k" horiz-adv-x="647" 
d="M227 767v-756l16 -11h-203l15 11v755l-15 11h202zM607 0h-223l11 8l-138 259l113 141zM567 575h-214s63 -41 35 -118c0 0 68 97 179 118z" />
    <glyph glyph-name="l" unicode="l" horiz-adv-x="283" 
d="M40 0l15 12v746l-15 12h186v-758l17 -12h-203z" />
    <glyph glyph-name="m" unicode="m" horiz-adv-x="894" 
d="M40 0l15 11v516l-15 10h186v-526l15 -11h-201zM368 11l-16 -11h200l-14 11v376c0 71 -33 128 -110 145c-67 15 -148 -29 -148 -29c2 0 87 13 88 -69v-423zM669 11l-16 -11h201l-14 11v376c0 71 -34 128 -110 145c-68 15 -149 -29 -149 -29c2 0 87 13 88 -69v-423z" />
    <glyph glyph-name="n" unicode="n" 
d="M40 0l15 11v516l-15 10h187v-526l15 -11h-202zM369 11l-16 -11h201l-14 11v376c0 71 -34 128 -111 145c-67 15 -148 -29 -148 -29c2 0 87 13 88 -69v-423z" />
    <glyph glyph-name="o" unicode="o" horiz-adv-x="595" 
d="M264 0c0 0 -27 10 -39 82c-8 44 -8 110 -8 192c0 69 3 125 10 175c6 49 25 82 41 88c-72 0 -228 -83 -228 -270c0 -204 143 -267 224 -267zM331 0c0 0 27 10 39 82c8 44 8 110 8 192c0 69 -3 125 -9 175c-7 49 -26 82 -42 88c73 0 228 -83 228 -270
c0 -204 -142 -267 -224 -267z" />
    <glyph glyph-name="p" unicode="p" horiz-adv-x="604" 
d="M40 -236l15 11v752l-15 10h187v-762l15 -11h-202zM308 520c79 50 256 -21 256 -250c0 -236 -167 -304 -256 -250c25 4 57 36 63 115c3 37 4 74 4 136c0 61 -1 96 -4 136c-6 77 -42 113 -63 113z" />
    <glyph glyph-name="q" unicode="q" horiz-adv-x="606" 
d="M551 -225l15 -11h-204l16 11v762h188l-15 -10v-752zM40 270c0 229 178 300 256 250c-21 0 -57 -36 -63 -113c-3 -40 -4 -75 -4 -136c0 -62 1 -99 4 -136c6 -79 39 -111 63 -115c-88 -54 -256 14 -256 250z" />
    <glyph glyph-name="r" unicode="r" horiz-adv-x="495" 
d="M40 0l15 11v516l-15 10h187v-526l15 -11h-202zM292 380c-11 46 15 92 60 104c13 3 25 3 37 1c-20 44 -71 52 -71 52c24 -1 115 -16 135 -117c0 0 5 -25 -2 -46c-9 -26 -30 -48 -58 -56c-34 -8 -67 5 -87 32c-6 8 -11 19 -14 30z" />
    <glyph glyph-name="s" unicode="s" horiz-adv-x="490" 
d="M55 222c29 -114 72 -166 160 -219c0 0 -130 44 -159 -3zM412 539l1 -191s-45 130 -161 191c0 0 139 -39 160 0zM448 165c6 42 -5 86 -35 119c-30 34 -75 51 -116 65c-35 12 -81 22 -110 47c-31 27 -44 62 -40 104c2 19 12 32 15 37c-70 -15 -122 -85 -122 -159
c0 -39 13 -80 39 -108c30 -32 71 -51 111 -66c57 -23 151 -33 157 -111c3 -36 -17 -65 -41 -89l-4 -4c17 8 40 16 60 32c25 20 47 44 64 72c11 19 19 40 22 61z" />
    <glyph glyph-name="t" unicode="t" horiz-adv-x="414" 
d="M253 534h121v-153c-14 67 -69 142 -121 153zM212 98c1 -82 86 -69 88 -69c0 0 -83 -44 -151 -29c-76 17 -109 74 -109 144v390c82 9 145 73 172 146v-582z" />
    <glyph glyph-name="u" unicode="u" horiz-adv-x="592" 
d="M552 537l-15 -11v-516l15 -10h-186v526l-15 11h201zM224 526l16 11h-200l14 -11v-378c0 -71 33 -128 109 -145c68 -15 149 29 149 29c-2 0 -87 -13 -88 69v425z" />
    <glyph glyph-name="v" unicode="v" horiz-adv-x="607" 
d="M415 537h152c-70 -37 -119 -161 -119 -165c32 131 -33 165 -33 165zM369 137l36 48l-53 -185h-117l-179 525l-16 12h210l-14 -10z" />
    <glyph glyph-name="w" unicode="w" horiz-adv-x="849" 
d="M334 206l33 46l-73 -252h-74l-164 525l-16 12h207l-14 -10zM809 537h-159s69 -34 51 -152c1 4 37 117 108 152zM664 252l-33 -45l-101 320l14 10h-209l16 -12l166 -525h74z" />
    <glyph glyph-name="x" unicode="x" horiz-adv-x="602" 
d="M267 528l287 -528h-196l-284 525l-17 12h222zM562 536h-141s63 -29 19 -137c1 3 52 108 122 137zM220 0c0 0 -71 18 -28 147c-1 -2 -56 -111 -152 -147h180z" />
    <glyph glyph-name="y" unicode="y" horiz-adv-x="604" 
d="M253 -158c0 0 -44 -7 -76 25c12 1 22 5 32 11c35 24 43 71 19 106s-71 44 -104 20c-34 -24 -41 -68 -21 -104c46 -81 135 -62 150 -58zM248 527l150 -314l-86 -213l-256 525l-16 12h221zM418 537h146c-63 -30 -111 -150 -111 -150c24 134 -35 150 -35 150z" />
    <glyph glyph-name="z" unicode="z" horiz-adv-x="563" 
d="M332 537h191l-289 -537h-194zM72 537h177c-123 -12 -171 -140 -177 -176v176zM500 209c-6 -38 -62 -200 -175 -209h175v209z" />
    <glyph glyph-name="j.ss02" horiz-adv-x="600" 
d="M453 674c0 49 -41 88 -89 88c-50 0 -89 -39 -89 -88c0 -48 39 -88 89 -88c48 0 89 40 89 88zM263 537h185v-567c0 -146 -158 -199 -220 -199c53 26 51 110 51 224v530z" />
    <glyph glyph-name="Q_j" horiz-adv-x="1074" 
d="M1034 674c0 49 -40 88 -89 88s-89 -39 -89 -88c0 -48 40 -88 89 -88s89 40 89 88zM844 537h186v-567c0 -147 -158 -199 -221 -199c54 25 51 109 51 224v530zM665 37c43 -24 69 -61 69 -103c0 -34 -17 -66 -49 -90c-33 -24 -77 -38 -123 -38c-81 0 -157 38 -217 81
s-104 62 -153 62c-7 0 -13 -1 -19 -2c10 6 19 10 29 13c26 9 53 11 79 10c18 0 34 -3 50 -7c50 -10 96 -31 145 -47c36 -11 67 -16 95 -16c65 0 116 39 116 86c0 18 -8 36 -22 51zM360 798c-69 0 -320 -49 -320 -399c0 -344 251 -399 319 -399c-30 21 -107 45 -113 236
c0 0 -3 84 -3 163c0 77 3 166 3 166c6 187 93 219 114 233zM435 798c69 0 320 -49 320 -399c0 -344 -251 -399 -319 -399c30 21 106 45 113 236c0 0 3 84 3 163c0 77 -3 166 -3 166c-6 187 -90 217 -114 233z" />
    <glyph glyph-name="g_j" horiz-adv-x="880" 
d="M840 674c0 49 -40 88 -89 88s-89 -39 -89 -88c0 -48 40 -88 89 -88s89 40 89 88zM650 537h186v-567c0 -146 -158 -199 -221 -199c54 26 51 110 51 224v530zM550 -225l16 -11h-204l15 11v762h189l-16 -10v-752zM40 270c0 229 177 300 255 250c-20 0 -56 -36 -62 -113
c-3 -40 -5 -75 -5 -136c0 -62 2 -99 5 -136c6 -79 38 -111 62 -115c-88 -54 -255 14 -255 250z" />
    <glyph glyph-name="j_j" horiz-adv-x="554" 
d="M-36 -229c0 0 -35 4 -57 43c11 -2 22 -1 33 3c40 14 59 57 45 97s-58 61 -96 47c-39 -14 -56 -56 -46 -95c24 -91 106 -95 121 -95zM236 674c0 49 -41 88 -89 88c-50 0 -89 -39 -89 -88c0 -48 39 -88 89 -88c48 0 89 40 89 88zM46 537h185v-567
c0 -146 -158 -199 -221 -199c54 26 52 110 52 224v530zM514 674c0 49 -41 88 -89 88c-50 0 -89 -39 -89 -88c0 -48 39 -88 89 -88c48 0 89 40 89 88zM324 537h185v-567c0 -146 -158 -199 -220 -199c53 26 51 110 51 224v530z" />
    <glyph glyph-name="q_j" horiz-adv-x="891" 
d="M851 674c0 49 -41 88 -89 88c-50 0 -89 -39 -89 -88c0 -48 39 -88 89 -88c48 0 89 40 89 88zM661 537h185v-567c0 -146 -158 -199 -220 -199c53 26 51 110 51 224v530zM572 -80c7 7 50 172 -152 180c-191 7 -195 8 -195 9c-1 0 -173 5 -56 107c-2 0 -162 -46 -102 -164
c0 0 30 -79 189 -87c158 -6 243 -10 243 -10s65 -4 72 -24c2 -3 1 -8 1 -11zM435 -120c-6 3 -13 7 -19 9c-18 7 -37 9 -55 8c-13 0 -24 -2 -36 -6c-35 -8 -66 -20 -99 -31c-26 -9 -47 -13 -68 -13c-43 0 -80 26 -80 62c0 14 5 27 15 39c-30 -18 -53 -57 -53 -88
c0 -26 13 -50 36 -69c22 -18 52 -28 85 -28c57 0 108 29 151 61c41 32 77 57 111 57c4 0 8 -1 12 -1zM548 554c-42 -12 -86 13 -99 56c-3 13 -4 26 -2 38c-40 -22 -46 -72 -46 -72c0 23 11 113 105 137c0 0 22 5 42 -1c25 -8 46 -28 54 -56c10 -33 -2 -66 -26 -87
c-8 -6 -17 -11 -28 -15zM290 216c-23 7 -34 21 -42 53c-6 25 -7 63 -7 112c0 21 -1 68 11 103c12 31 33 52 40 53c-79 0 -198 -54 -198 -161c0 -134 138 -160 196 -160zM327 216c23 7 34 21 42 53c6 25 7 63 7 112c0 21 2 68 -11 103c-11 31 -33 52 -40 53
c79 0 198 -54 198 -161c0 -134 -138 -160 -196 -160z" />
    <glyph glyph-name="zero" unicode="0" horiz-adv-x="715" 
d="M326 798c-63 0 -286 -49 -286 -399c0 -344 223 -399 285 -399c-27 21 -89 45 -95 236c0 0 -3 84 -3 163c0 77 3 167 3 167c5 186 75 215 96 232zM389 798c63 0 286 -49 286 -399c0 -344 -223 -399 -285 -399c27 21 89 45 94 236c0 0 4 84 4 163c0 77 -4 167 -4 167
c-4 186 -74 215 -95 232z" />
    <glyph glyph-name="one" unicode="1" horiz-adv-x="367" 
d="M327 0l-17 12l1 805s-86 -120 -271 -147c0 0 90 -14 90 -131v-527l-17 -12h17h180h17z" />
    <glyph glyph-name="two" unicode="2" 
d="M554 230c-1 -40 5 -69 -12 -110c-23 -62 -78 -110 -147 -120c-65 -9 -115 31 -161 69c-38 31 -74 50 -120 50c-23 0 -45 -10 -61 -26c-3 -2 -4 -4 -6 -6c19 34 48 60 87 77c44 19 93 20 141 17c59 -3 118 -9 178 -9s88 24 101 58zM527 682c37 -66 34 -146 -22 -208
c-61 -66 -296 -158 -362 -239c13 50 177 218 206 322c23 83 2 216 -97 241c160 0 244 -60 275 -116zM143 486c53 0 103 44 103 104c0 56 -46 103 -103 103c-16 0 -32 -4 -46 -11c12 58 78 99 78 99s-135 -51 -135 -195c0 -49 43 -100 103 -100z" />
    <glyph glyph-name="three" unicode="3" horiz-adv-x="602" 
d="M225 193c0 -51 -42 -93 -93 -93c-14 0 -28 4 -41 10c11 -52 70 -89 70 -89s-121 46 -121 174c0 18 6 34 14 47c17 26 46 43 78 43c39 0 71 -23 85 -57c5 -11 8 -23 8 -35zM225 628c0 46 -38 84 -85 84c-13 0 -26 -3 -37 -9c9 48 64 82 64 82s-111 -42 -111 -160
c0 -16 5 -30 13 -43c15 -23 41 -39 71 -39c35 0 65 22 78 52c4 10 7 21 7 33zM323 443c0 0 239 -21 239 -214c0 -153 -170 -216 -272 -229c7 4 60 30 77 106c8 41 9 87 9 117c0 67 -6 110 -17 142c-17 53 -85 74 -83 74c39 18 52 44 64 102c5 23 5 55 5 85s-3 49 -8 79
c-13 75 -70 94 -70 94c62 -1 240 -28 240 -174c0 -142 -184 -182 -184 -182z" />
    <glyph glyph-name="four" unicode="4" horiz-adv-x="716" 
d="M510 12l16 -12h-216l17 12v667l72 119h111v-786zM158 420c-36 -135 86 -185 86 -185h-204zM676 429c-1 -6 -29 -83 -105 -96c72 -11 104 -92 105 -98v194z" />
    <glyph glyph-name="five" unicode="5" horiz-adv-x="660" 
d="M225 193c0 -51 -42 -93 -93 -93c-14 0 -28 4 -41 10c11 -52 70 -89 70 -89s-121 46 -121 174c0 18 6 34 14 47c17 26 46 43 78 43c39 0 71 -23 85 -57c5 -11 8 -23 8 -35zM616 700c1 2 3 4 4 6c-17 -37 -47 -65 -86 -83c-47 -21 -99 -20 -149 -17c-58 3 -103 26 -160 26
c-61 0 -115 -65 -135 -117c-15 122 29 283 200 283c58 0 101 -37 143 -73c39 -34 75 -53 121 -53c23 0 45 10 62 28zM230 479c296 34 338 -142 338 -219c0 -73 -28 -227 -265 -260c16 8 54 42 70 118c11 45 11 96 11 130c0 74 -20 209 -154 231z" />
    <glyph glyph-name="six" unicode="6" horiz-adv-x="645" 
d="M383 622c-6 47 27 90 74 96c14 2 27 1 39 -4c-16 47 -85 78 -85 78s128 -32 143 -150c2 -16 -1 -32 -8 -45c-12 -26 -36 -45 -66 -49c-36 -5 -69 13 -86 42c-5 9 -9 20 -11 32zM296 471c252 51 309 -134 309 -211c0 -73 -21 -226 -224 -259c13 8 42 41 57 117
c8 45 9 96 9 130c0 113 -26 204 -151 223zM318 798c-59 0 -278 -49 -278 -399c0 -337 219 -399 277 -399c-26 19 -81 45 -86 236c0 0 -3 84 -3 163c0 77 3 167 3 167c7 199 66 219 87 232z" />
    <glyph glyph-name="seven" unicode="7" horiz-adv-x="615" 
d="M571 700c1 2 3 4 4 6c-18 -37 -47 -65 -86 -83c-47 -21 -99 -20 -150 -17c-57 3 -102 26 -160 26c-60 0 -117 -34 -137 -87c-15 122 55 253 202 253c59 0 102 -37 144 -73c38 -34 75 -53 121 -53c23 0 45 10 62 28zM416 484c24 21 45 41 63 61c-9 -13 -17 -25 -27 -39
c-8 -14 -18 -28 -28 -43c-36 -54 -64 -110 -82 -164c-17 -52 -25 -105 -25 -157c0 -48 7 -95 22 -142h-241c-1 11 -1 22 -1 32c0 78 13 135 44 188c30 51 76 100 160 169z" />
    <glyph glyph-name="eight" unicode="8" horiz-adv-x="673" 
d="M67 128c17 -29 41 -54 72 -74c42 -28 95 -46 153 -54c-8 5 -15 10 -21 16c-18 18 -31 48 -39 90c-9 42 -10 87 -10 117c0 66 5 110 17 142c12 35 34 58 68 72l1 1c3 1 6 2 9 2c-16 6 -29 14 -40 26c-21 28 -25 93 -25 129c0 83 9 137 29 169c9 15 19 26 34 33
c1 0 2 1 3 1c-62 -1 -120 -17 -160 -47c-45 -31 -69 -75 -69 -127c0 -29 8 -55 24 -79c26 -39 73 -71 140 -94l35 -12l-37 -7c-84 -15 -144 -48 -180 -98c-27 -39 -31 -79 -31 -99c0 -40 9 -76 27 -107zM606 128c-16 -29 -40 -54 -71 -74c-42 -28 -95 -46 -154 -54
c9 5 15 10 21 16c18 18 32 48 40 90s9 87 9 117c0 66 -5 110 -16 142c-13 35 -35 58 -68 72l-1 1c-3 1 -6 2 -9 2c15 6 29 14 39 26c22 28 25 93 25 129c0 83 -8 137 -28 169c-8 15 -20 26 -34 33c-1 0 -2 1 -4 1c63 -1 120 -17 162 -47c44 -31 68 -75 68 -127
c0 -29 -9 -55 -24 -79c-26 -39 -73 -71 -141 -94l-34 -12l36 -7c84 -15 145 -48 180 -98c27 -39 31 -79 31 -99c0 -40 -9 -76 -27 -107z" />
    <glyph glyph-name="nine" unicode="9" horiz-adv-x="645" 
d="M262 176c6 -47 -27 -90 -74 -96c-14 -2 -27 0 -39 4c16 -47 86 -78 86 -78s-129 32 -144 151c-2 16 1 31 8 45c12 25 36 45 67 49c35 4 68 -13 85 -42c6 -10 9 -21 11 -33zM349 328c-252 -51 -309 133 -309 210c0 74 21 226 224 259c-13 -8 -42 -41 -57 -116
c-8 -46 -9 -97 -9 -131c0 -113 26 -203 151 -222zM327 0c59 0 278 49 278 399c0 337 -219 399 -277 399c26 -19 81 -45 86 -236c0 0 3 -84 3 -163c0 -77 -3 -166 -3 -166c-7 -199 -66 -219 -87 -233z" />
    <glyph glyph-name="comma" unicode="," horiz-adv-x="260" 
d="M50 2c0 46 36 83 80 83c13 0 25 -3 35 -8c-8 47 -59 81 -59 81s111 -41 104 -158c-1 -45 -36 -81 -80 -81s-80 37 -80 83z" />
    <glyph glyph-name="exclam" unicode="!" horiz-adv-x="303" 
d="M245 93c0 51 -42 93 -93 93c-52 0 -93 -42 -93 -93s41 -93 93 -93c51 0 93 42 93 93zM252 710c0 0 4 -23 -2 -73c-6 -66 -29 -180 -98 -351c-69 170 -92 283 -99 350c-5 50 -1 74 -1 74c6 49 48 88 99 88h1c51 0 94 -39 100 -88z" />
    <glyph glyph-name="period" unicode="." horiz-adv-x="259" 
d="M209 80c0 44 -35 80 -80 80c-44 0 -79 -36 -79 -80s35 -80 79 -80c45 0 80 36 80 80z" />
    <glyph glyph-name="question" unicode="?" horiz-adv-x="605" 
d="M555 603c1 -26 -4 -48 -16 -68c-9 -19 -24 -35 -43 -50c-37 -28 -87 -47 -134 -66c-16 -6 -32 -12 -47 -19c-32 -14 -55 -37 -67 -57c8 24 24 55 38 83c31 60 66 129 65 212c-1 43 -12 83 -32 112c-17 25 -40 41 -66 48c42 1 82 -3 118 -11c37 -8 69 -21 96 -37
c28 -16 49 -37 64 -61c16 -25 24 -54 24 -86zM355 97c0 52 -42 94 -93 94c-52 0 -93 -42 -93 -94c0 -51 41 -93 93 -93c51 0 93 42 93 93zM248 584c0 57 -45 103 -99 103c-16 0 -31 -4 -44 -11c10 59 74 100 74 100s-137 -51 -129 -195c1 -55 45 -99 99 -99s99 46 99 102z
" />
    <glyph glyph-name="quotesingle" unicode="'" horiz-adv-x="209" 
d="M30 721c0 43 33 77 75 77c11 0 22 -3 32 -8c-8 44 -55 75 -55 75s103 -38 97 -146c-1 -41 -34 -75 -74 -75c-42 0 -75 35 -75 77z" />
    <glyph glyph-name="ampersand" unicode="&#x26;" horiz-adv-x="907" 
d="M436 131c-80 103 -144 209 -201 308h1l-9 16c-29 50 -44 103 -42 153c1 52 23 104 60 143c18 19 39 34 61 44c1 0 3 1 4 2c-2 -6 -3 -11 -3 -16c-2 -65 80 -215 103 -252l7 -12c29 -54 63 -114 119 -182l2 -3l5 -7c19 -24 58 -72 102 -112c48 -44 90 -67 124 -68
c9 0 31 1 52 15c-12 -33 -29 -65 -51 -91c-19 -24 -42 -43 -65 -55c-24 -13 -49 -20 -75 -19c-63 2 -118 50 -181 122l-13 15v-1zM386 32c8 -1 16 -1 25 0c-29 -18 -61 -25 -93 -33c-46 -11 -92 -5 -140 18c-31 16 -59 42 -79 72c-28 43 -36 95 -24 148c12 49 42 99 80 130
c8 6 15 11 21 16c-2 -4 -3 -8 -5 -12c-4 -13 -5 -28 -3 -42c7 -42 31 -87 58 -129c18 -26 40 -57 58 -83c25 -34 66 -78 102 -85zM651 471c-48 -23 -53 -63 -53 -63v1c1 20 8 41 17 59c4 8 8 15 13 21c17 23 40 40 66 51c15 6 32 8 48 7c15 -1 29 -4 42 -11
c24 -13 42 -35 49 -61c15 -53 -14 -107 -64 -121c-49 -13 -101 19 -116 73c-4 15 -4 30 -2 44zM399 792c-2 3 -9 10 -21 12h10c35 -2 75 -3 110 -17c14 -6 28 -13 39 -23c45 -42 33 -119 -4 -161c-15 -17 -33 -32 -55 -45c2 6 4 12 4 20c0 41 -34 129 -59 178
c-6 13 -14 25 -24 36z" />
    </font>
</defs>
</svg>
